# xmcd CD database file
#
# Track frame offsets:
#	150
#	20070
#	34977
#	55425
#	71987
#	89340
#	105492
#	124532
#	143617
#	158900
#	178785
#	201062
#
# Disc length: 2914 seconds
#
# Revision: 3
# Processed by: cddbd v1.5.2PL0 Copyright (c) Steve Scherf et al.
# Submitted via: CDex 1.51
#
DISCID=aa0b600c
DTITLE=Jessica Simpson - Sweet Kisses
DYEAR=1900
DGENRE=Pop
TTITLE0=I Wanna Love You Forever
TTITLE1=I Think I'm In Love With You
TTITLE2=Where You Are (featuring Nick Lachey)
TTITLE3=Final Heartbreak
TTITLE4=Women In Me (featuring Destiny's Child)
TTITLE5=I've Got My Eyes On You
TTITLE6=Betcha She Don't Love You
TTITLE7=My Wonderful
TTITLE8=Sweet Kisses
TTITLE9=You Faith In Me
TTITLE10=Heart Of Innocence
TTITLE11=Did You Ever Love Somebody
EXTD=
EXTT0=
EXTT1=
EXTT2=
EXTT3=
EXTT4=
EXTT5=
EXTT6=
EXTT7=
EXTT8=
EXTT9=
EXTT10=
EXTT11=
PLAYORDER=
